<svg xmlns="http://www.w3.org/2000/svg" xmlns:xlink="http://www.w3.org/1999/xlink" viewBox="0 0 600 300"><defs><style>.cls-1{fill:#231f20;}.cls-2{isolation:isolate;filter:url(#luminosity-noclip-2);}.cls-10,.cls-11,.cls-12,.cls-13,.cls-14,.cls-15,.cls-16,.cls-17,.cls-18,.cls-19,.cls-20,.cls-21,.cls-22,.cls-23,.cls-24,.cls-25,.cls-26,.cls-27,.cls-28,.cls-29,.cls-3,.cls-30,.cls-31,.cls-32,.cls-33,.cls-34,.cls-35,.cls-36,.cls-37,.cls-38,.cls-39,.cls-40,.cls-41,.cls-42,.cls-43,.cls-44,.cls-45,.cls-46,.cls-47,.cls-48,.cls-49,.cls-5,.cls-50,.cls-51,.cls-52,.cls-53,.cls-54,.cls-55,.cls-56,.cls-57,.cls-58,.cls-59,.cls-6,.cls-60,.cls-61,.cls-62,.cls-63,.cls-64,.cls-65,.cls-66,.cls-67,.cls-68,.cls-69,.cls-7,.cls-70,.cls-71,.cls-72,.cls-73,.cls-74,.cls-75,.cls-76,.cls-77,.cls-78,.cls-79,.cls-80,.cls-81,.cls-82,.cls-83,.cls-84,.cls-85,.cls-86,.cls-87,.cls-88,.cls-89,.cls-9,.cls-90,.cls-91,.cls-92,.cls-93,.cls-94,.cls-95,.cls-96,.cls-97{fill:none;}.cls-4{fill:#414042;}.cls-10,.cls-11,.cls-12,.cls-13,.cls-14,.cls-15,.cls-16,.cls-17,.cls-18,.cls-19,.cls-20,.cls-21,.cls-22,.cls-23,.cls-24,.cls-25,.cls-26,.cls-27,.cls-28,.cls-29,.cls-30,.cls-31,.cls-32,.cls-33,.cls-34,.cls-35,.cls-36,.cls-37,.cls-38,.cls-39,.cls-40,.cls-41,.cls-42,.cls-43,.cls-44,.cls-45,.cls-46,.cls-47,.cls-48,.cls-49,.cls-5,.cls-50,.cls-51,.cls-52,.cls-53,.cls-54,.cls-55,.cls-56,.cls-57,.cls-58,.cls-59,.cls-6,.cls-60,.cls-61,.cls-62,.cls-63,.cls-64,.cls-65,.cls-66,.cls-67,.cls-68,.cls-69,.cls-7,.cls-70,.cls-71,.cls-72,.cls-73,.cls-74,.cls-75,.cls-76,.cls-77,.cls-78,.cls-79,.cls-80,.cls-81,.cls-82,.cls-83,.cls-84,.cls-85,.cls-86,.cls-87,.cls-88,.cls-89,.cls-9,.cls-90,.cls-91,.cls-92,.cls-93,.cls-94,.cls-95,.cls-96,.cls-97{stroke:#54ba63;stroke-miterlimit:10;}.cls-5,.cls-6,.cls-7{stroke-width:12px;}.cls-6{stroke-dasharray:12 12;}.cls-7{stroke-dasharray:11.52 11.52;}.cls-8{mask:url(#mask);}.cls-9{stroke-width:2.09px;}.cls-10{stroke-width:2.12px;}.cls-11{stroke-width:2.15px;}.cls-12{stroke-width:2.18px;}.cls-13{stroke-width:2.21px;}.cls-14{stroke-width:2.24px;}.cls-15{stroke-width:2.27px;}.cls-16{stroke-width:2.3px;}.cls-17{stroke-width:2.33px;}.cls-18{stroke-width:2.36px;}.cls-19{stroke-width:2.39px;}.cls-20{stroke-width:2.42px;}.cls-21{stroke-width:2.45px;}.cls-22{stroke-width:2.48px;}.cls-23{stroke-width:2.5px;}.cls-24{stroke-width:2.53px;}.cls-25{stroke-width:2.56px;}.cls-26{stroke-width:2.59px;}.cls-27{stroke-width:2.62px;}.cls-28{stroke-width:2.65px;}.cls-29{stroke-width:2.68px;}.cls-30{stroke-width:2.71px;}.cls-31{stroke-width:2.74px;}.cls-32{stroke-width:2.77px;}.cls-33{stroke-width:2.8px;}.cls-34{stroke-width:2.83px;}.cls-35{stroke-width:2.86px;}.cls-36{stroke-width:2.89px;}.cls-37{stroke-width:2.92px;}.cls-38{stroke-width:2.95px;}.cls-39{stroke-width:2.98px;}.cls-40{stroke-width:3.01px;}.cls-41{stroke-width:3.04px;}.cls-42{stroke-width:3.07px;}.cls-43{stroke-width:3.1px;}.cls-44{stroke-width:3.13px;}.cls-45{stroke-width:3.16px;}.cls-46{stroke-width:3.19px;}.cls-47{stroke-width:3.22px;}.cls-48{stroke-width:3.25px;}.cls-49{stroke-width:3.28px;}.cls-50{stroke-width:3.31px;}.cls-51{stroke-width:3.34px;}.cls-52{stroke-width:3.37px;}.cls-53{stroke-width:3.4px;}.cls-54{stroke-width:3.43px;}.cls-55{stroke-width:3.46px;}.cls-56{stroke-width:3.49px;}.cls-57{stroke-width:3.51px;}.cls-58{stroke-width:3.54px;}.cls-59{stroke-width:3.57px;}.cls-60{stroke-width:3.6px;}.cls-61{stroke-width:3.63px;}.cls-62{stroke-width:3.66px;}.cls-63{stroke-width:3.69px;}.cls-64{stroke-width:3.72px;}.cls-65{stroke-width:3.75px;}.cls-66{stroke-width:3.78px;}.cls-67{stroke-width:3.81px;}.cls-68{stroke-width:3.84px;}.cls-69{stroke-width:3.87px;}.cls-70{stroke-width:3.9px;}.cls-71{stroke-width:3.93px;}.cls-72{stroke-width:3.96px;}.cls-73{stroke-width:3.99px;}.cls-74{stroke-width:4.02px;}.cls-75{stroke-width:4.05px;}.cls-76{stroke-width:4.08px;}.cls-77{stroke-width:4.11px;}.cls-78{stroke-width:4.14px;}.cls-79{stroke-width:4.17px;}.cls-80{stroke-width:4.2px;}.cls-81{stroke-width:4.23px;}.cls-82{stroke-width:4.26px;}.cls-83{stroke-width:4.29px;}.cls-84{stroke-width:4.32px;}.cls-85{stroke-width:4.35px;}.cls-86{stroke-width:4.38px;}.cls-87{stroke-width:4.41px;}.cls-88{stroke-width:4.44px;}.cls-89{stroke-width:4.47px;}.cls-90{stroke-width:4.5px;}.cls-91{stroke-width:4.52px;}.cls-92{stroke-width:4.55px;}.cls-93{stroke-width:4.58px;}.cls-94{stroke-width:4.61px;}.cls-95{stroke-width:4.64px;}.cls-96{stroke-width:4.67px;}.cls-97{stroke-width:4.7px;}.cls-98{clip-path:url(#clip-path);}.cls-99{clip-path:url(#clip-path-2);}.cls-100{mask:url(#mask-2);}.cls-101{clip-path:url(#clip-path-4);}.cls-102{fill:#39b54a;}.cls-103{fill:#fff;}.cls-104{filter:url(#luminosity-noclip);}</style><filter id="luminosity-noclip" x="-47.57" y="94.94" width="692.59" height="62.26" filterUnits="userSpaceOnUse" color-interpolation-filters="sRGB"><feFlood flood-color="#fff" result="bg"/><feBlend in="SourceGraphic" in2="bg"/></filter><mask id="mask" x="-47.57" y="94.94" width="692.59" height="62.26" maskUnits="userSpaceOnUse"><g class="cls-104"><path class="cls-1" d="M273.21,147.73a31.1,31.1,0,0,1-3.26-.17,23.84,23.84,0,0,1-3.17-.56,26.81,26.81,0,0,1-6-2.2v-8.49a32.9,32.9,0,0,0,3.26,2.06,23.37,23.37,0,0,0,3.12,1.42,17.3,17.3,0,0,0,6,1.14,9.69,9.69,0,0,0,2.76-.35,5.56,5.56,0,0,0,2-1,4.68,4.68,0,0,0,1.67-3.84,5.1,5.1,0,0,0-1.11-3.28,6.14,6.14,0,0,0-1.41-1.27,9.58,9.58,0,0,0-1.82-.93l-4-1.53a33.64,33.64,0,0,1-5.26-2.46,12.61,12.61,0,0,1-3.15-2.52,10.37,10.37,0,0,1-2.2-7q0-5.68,3.62-8.88t9.91-3.23a26.46,26.46,0,0,1,3,.17,24.15,24.15,0,0,1,2.78.47q1.31.31,2.77.79a28.2,28.2,0,0,1,2.91,1.15v8a21.77,21.77,0,0,0-5.37-2.84,16.21,16.21,0,0,0-5.43-1,7.34,7.34,0,0,0-4.54,1.2,4,4,0,0,0-1.59,3.39,3.78,3.78,0,0,0,1.17,2.87,7,7,0,0,0,1.66,1.14,28.51,28.51,0,0,0,3.16,1.36l3.53,1.34a16.61,16.61,0,0,1,7.38,4.84,12.35,12.35,0,0,1,2.37,7.82q0,6.15-3.73,9.24T273.21,147.73Z"/><path class="cls-1" d="M296,105.37h25.88v7.24H304.21v9h16v7.24h-16v10.88h17.67v7.24H296Z"/><path class="cls-1" d="M330.32,105.37H356.2v7.24H338.53v9h16v7.24h-16v10.88H356.2v7.24H330.32Z"/><path class="cls-1" d="M363.77,105.37h8.79q10.19,0,14.67,4.84a15.65,15.65,0,0,1,3.34,6.33,34.85,34.85,0,0,1,1.14,9.59q0,11-4.48,15.89t-14.67,4.9h-8.79Zm10.44,34.15q4.84,0,6.9-3.06t2.06-10.35q0-7.24-2.06-10.3t-6.9-3H372v26.75Z"/><path class="cls-1" d="M411.42,147.73a13.74,13.74,0,0,1-6.44-1.41,12,12,0,0,1-4.44-4q-3.7-5.48-3.7-16.11a42.26,42.26,0,0,1,.92-9.34,20.2,20.2,0,0,1,2.78-6.8,11.54,11.54,0,0,1,4.7-4.13,14.48,14.48,0,0,1,6.18-1.29A14,14,0,0,1,417.8,106a12,12,0,0,1,4.56,4.08q3.67,5.48,3.67,16.12t-3.67,16.09a12,12,0,0,1-4.5,4A13.85,13.85,0,0,1,411.42,147.73Zm0-7.37q3.17,0,4.62-3.37t1.45-10.83q0-7.49-1.45-10.8T411.42,112a4.41,4.41,0,0,0-2.75.85,6.16,6.16,0,0,0-1.84,2.52q-1.45,3.31-1.45,10.8T406.83,137Q408.28,140.35,411.42,140.35Z"/><path class="cls-1" d="M431,105.37h9.8l5,18.23,4.93-18.23h9.85v41.55h-7.07V113.63l-4.4,18.17h-6.54l-4.45-18.17v33.29H431Z"/><path class="cls-1" d="M479.94,148.09a4.63,4.63,0,0,1-1.92-.38,5.14,5.14,0,0,1-1.53-1.07A4.94,4.94,0,0,1,475,143a5.05,5.05,0,0,1,1.45-3.73,4.73,4.73,0,0,1,3.48-1.42,5.17,5.17,0,0,1,1.89.35,4.71,4.71,0,0,1,1.61,1.07A5,5,0,0,1,484.9,143a4.93,4.93,0,0,1-1.42,3.65A4.81,4.81,0,0,1,479.94,148.09Z"/><path class="cls-1" d="M502,139.68h8.27V112.6H502v-7.24h24.74v7.24h-8.27v27.08h8.27v7.24H502Z"/><path class="cls-1" d="M548.69,147.73a13.74,13.74,0,0,1-6.44-1.41,12,12,0,0,1-4.44-4q-3.7-5.48-3.7-16.11a42.26,42.26,0,0,1,.92-9.34,20.2,20.2,0,0,1,2.78-6.8,11.54,11.54,0,0,1,4.7-4.13,14.48,14.48,0,0,1,6.18-1.29,14,14,0,0,1,6.37,1.38,12,12,0,0,1,4.56,4.08q3.67,5.48,3.67,16.12t-3.67,16.09a12,12,0,0,1-4.5,4A13.85,13.85,0,0,1,548.69,147.73Zm0-7.37q3.17,0,4.62-3.37t1.45-10.83q0-7.49-1.45-10.8T548.69,112a4.41,4.41,0,0,0-2.75.85,6.16,6.16,0,0,0-1.84,2.52q-1.45,3.31-1.45,10.8T544.1,137Q545.54,140.35,548.69,140.35Z"/></g></mask><clipPath id="clip-path"><rect class="cls-3" x="19.8" y="21.75" width="213.87" height="262.88"/></clipPath><clipPath id="clip-path-2"><rect class="cls-3" x="-30.21" y="-11.44" width="320.67" height="320.67"/></clipPath><filter id="luminosity-noclip-2" x="19.8" y="22.2" width="93.36" height="64.94" filterUnits="userSpaceOnUse" color-interpolation-filters="sRGB"><feFlood flood-color="#fff" result="bg"/><feBlend in="SourceGraphic" in2="bg"/></filter><mask id="mask-2" x="19.8" y="22.2" width="93.36" height="64.94" maskUnits="userSpaceOnUse"><g class="cls-2"><path class="cls-1" d="M113.16,82.37c-.21-.19-10.77-9.57-25.41-20.1-1.61-3.33-5.21-12.46-3.31-16.5L82.84,45c-1.9,4,.5,11.26,2.12,15.27-6.32-4.45-13.27-9-20.42-13.09-1.06-3-3.44-10.48-3-13.25l-1.74-.29c-.47,2.85,1.34,9,2.41,12.25-9.07-5-18.36-9.21-27-11.36l-.43,1.71c7.93,2,16.47,5.72,24.87,10.26-4.29-.13-11,.39-15.94,4.18l1.07,1.41c6.63-5,17.06-3.74,18.61-3.51,6.56,3.74,13,7.88,18.86,12-5.32-1-13.78-.94-20.15,6.27L63.49,68c8.66-9.82,21.28-5.18,23-4.49,14.67,10.54,25.3,20,25.51,20.17Z"/></g></mask><clipPath id="clip-path-4"><rect class="cls-3" x="19.8" y="22.2" width="92.77" height="64.94"/></clipPath></defs><title>seedom-ticket</title><g id="Layer_4" data-name="Layer 4"><rect class="cls-4" width="600" height="300"/></g><g id="Frame"><polyline class="cls-5" points="600 294 600 300 594 300"/><line class="cls-6" x1="582" y1="300" x2="12" y2="300"/><polyline class="cls-5" points="6 300 0 300 0 294"/><line class="cls-7" y1="282.48" y2="11.76"/><polyline class="cls-5" points="0 6 0 0 6 0"/><line class="cls-6" x1="18" x2="588"/><polyline class="cls-5" points="594 0 600 0 600 6"/><line class="cls-7" x1="600" y1="17.52" x2="600" y2="288.24"/><g class="cls-8"><line class="cls-9" x1="4.66" y1="96.38" x2="-46.79" y2="155.76"/><line class="cls-10" x1="11.39" y1="96.38" x2="-38.94" y2="155.76"/><line class="cls-11" x1="18.12" y1="96.38" x2="-31.1" y2="155.76"/><line class="cls-12" x1="24.85" y1="96.38" x2="-23.26" y2="155.76"/><line class="cls-13" x1="31.59" y1="96.38" x2="-15.42" y2="155.76"/><line class="cls-14" x1="38.32" y1="96.38" x2="-7.58" y2="155.76"/><line class="cls-15" x1="45.05" y1="96.38" x2="0.26" y2="155.76"/><line class="cls-16" x1="51.79" y1="96.38" x2="8.1" y2="155.76"/><line class="cls-17" x1="58.52" y1="96.38" x2="15.94" y2="155.76"/><line class="cls-18" x1="65.25" y1="96.38" x2="23.78" y2="155.76"/><line class="cls-19" x1="71.98" y1="96.38" x2="31.62" y2="155.76"/><line class="cls-20" x1="78.72" y1="96.38" x2="39.46" y2="155.76"/><line class="cls-21" x1="85.45" y1="96.38" x2="47.3" y2="155.76"/><line class="cls-22" x1="92.18" y1="96.38" x2="55.14" y2="155.76"/><line class="cls-23" x1="98.91" y1="96.38" x2="62.98" y2="155.76"/><line class="cls-24" x1="105.65" y1="96.38" x2="70.82" y2="155.76"/><line class="cls-25" x1="112.38" y1="96.38" x2="78.66" y2="155.76"/><line class="cls-26" x1="119.11" y1="96.38" x2="86.5" y2="155.76"/><line class="cls-27" x1="125.84" y1="96.38" x2="94.34" y2="155.76"/><line class="cls-28" x1="132.58" y1="96.38" x2="102.18" y2="155.76"/><line class="cls-29" x1="139.31" y1="96.38" x2="110.02" y2="155.76"/><line class="cls-30" x1="146.04" y1="96.38" x2="117.86" y2="155.76"/><line class="cls-31" x1="152.78" y1="96.38" x2="125.7" y2="155.76"/><line class="cls-32" x1="159.51" y1="96.38" x2="133.54" y2="155.76"/><line class="cls-33" x1="166.24" y1="96.38" x2="141.38" y2="155.76"/><line class="cls-34" x1="172.97" y1="96.38" x2="149.22" y2="155.76"/><line class="cls-35" x1="179.71" y1="96.38" x2="157.06" y2="155.76"/><line class="cls-36" x1="186.44" y1="96.38" x2="164.9" y2="155.76"/><line class="cls-37" x1="193.17" y1="96.38" x2="172.74" y2="155.76"/><line class="cls-38" x1="199.9" y1="96.38" x2="180.58" y2="155.76"/><line class="cls-39" x1="206.64" y1="96.38" x2="188.42" y2="155.76"/><line class="cls-40" x1="213.37" y1="96.38" x2="196.26" y2="155.76"/><line class="cls-41" x1="220.1" y1="96.38" x2="204.1" y2="155.76"/><line class="cls-42" x1="226.83" y1="96.38" x2="211.94" y2="155.76"/><line class="cls-43" x1="233.57" y1="96.38" x2="219.78" y2="155.76"/><line class="cls-44" x1="240.3" y1="96.38" x2="227.62" y2="155.76"/><line class="cls-45" x1="247.03" y1="96.38" x2="235.46" y2="155.76"/><line class="cls-46" x1="253.77" y1="96.38" x2="243.3" y2="155.76"/><line class="cls-47" x1="260.5" y1="96.38" x2="251.14" y2="155.76"/><line class="cls-48" x1="267.23" y1="96.38" x2="258.98" y2="155.76"/><line class="cls-49" x1="273.96" y1="96.38" x2="266.82" y2="155.76"/><line class="cls-50" x1="280.7" y1="96.38" x2="274.67" y2="155.76"/><line class="cls-51" x1="287.43" y1="96.38" x2="282.51" y2="155.76"/><line class="cls-52" x1="294.16" y1="96.38" x2="290.35" y2="155.76"/><line class="cls-53" x1="300.89" y1="96.38" x2="298.19" y2="155.76"/><line class="cls-54" x1="307.63" y1="96.38" x2="306.03" y2="155.76"/><line class="cls-55" x1="314.36" y1="96.38" x2="313.87" y2="155.76"/><line class="cls-56" x1="321.09" y1="96.38" x2="321.71" y2="155.76"/><line class="cls-57" x1="327.82" y1="96.38" x2="329.55" y2="155.76"/><line class="cls-58" x1="334.56" y1="96.38" x2="337.39" y2="155.76"/><line class="cls-59" x1="341.29" y1="96.38" x2="345.23" y2="155.76"/><line class="cls-60" x1="348.02" y1="96.38" x2="353.07" y2="155.76"/><line class="cls-61" x1="354.76" y1="96.38" x2="360.91" y2="155.76"/><line class="cls-62" x1="361.49" y1="96.38" x2="368.75" y2="155.76"/><line class="cls-63" x1="368.22" y1="96.38" x2="376.59" y2="155.76"/><line class="cls-64" x1="374.95" y1="96.38" x2="384.43" y2="155.76"/><line class="cls-65" x1="381.69" y1="96.38" x2="392.27" y2="155.76"/><line class="cls-66" x1="388.42" y1="96.38" x2="400.11" y2="155.76"/><line class="cls-67" x1="395.15" y1="96.38" x2="407.95" y2="155.76"/><line class="cls-68" x1="401.88" y1="96.38" x2="415.79" y2="155.76"/><line class="cls-69" x1="408.62" y1="96.38" x2="423.63" y2="155.76"/><line class="cls-70" x1="415.35" y1="96.38" x2="431.47" y2="155.76"/><line class="cls-71" x1="422.08" y1="96.38" x2="439.31" y2="155.76"/><line class="cls-72" x1="428.81" y1="96.38" x2="447.15" y2="155.76"/><line class="cls-73" x1="435.55" y1="96.38" x2="454.99" y2="155.76"/><line class="cls-74" x1="442.28" y1="96.38" x2="462.83" y2="155.76"/><line class="cls-75" x1="449.01" y1="96.38" x2="470.67" y2="155.76"/><line class="cls-76" x1="455.75" y1="96.38" x2="478.51" y2="155.76"/><line class="cls-77" x1="462.48" y1="96.38" x2="486.35" y2="155.76"/><line class="cls-78" x1="469.21" y1="96.38" x2="494.19" y2="155.76"/><line class="cls-79" x1="475.94" y1="96.38" x2="502.03" y2="155.76"/><line class="cls-80" x1="482.68" y1="96.38" x2="509.87" y2="155.76"/><line class="cls-81" x1="489.41" y1="96.38" x2="517.71" y2="155.76"/><line class="cls-82" x1="496.14" y1="96.38" x2="525.55" y2="155.76"/><line class="cls-83" x1="502.87" y1="96.38" x2="533.39" y2="155.76"/><line class="cls-84" x1="509.61" y1="96.38" x2="541.23" y2="155.76"/><line class="cls-85" x1="516.34" y1="96.38" x2="549.07" y2="155.76"/><line class="cls-86" x1="523.07" y1="96.38" x2="556.91" y2="155.76"/><line class="cls-87" x1="529.8" y1="96.38" x2="564.75" y2="155.76"/><line class="cls-88" x1="536.54" y1="96.38" x2="572.59" y2="155.76"/><line class="cls-89" x1="543.27" y1="96.38" x2="580.43" y2="155.76"/><line class="cls-90" x1="550" y1="96.38" x2="588.28" y2="155.76"/><line class="cls-91" x1="556.74" y1="96.38" x2="596.12" y2="155.76"/><line class="cls-92" x1="563.47" y1="96.38" x2="603.96" y2="155.76"/><line class="cls-93" x1="570.2" y1="96.38" x2="611.8" y2="155.76"/><line class="cls-94" x1="576.93" y1="96.38" x2="619.64" y2="155.76"/><line class="cls-95" x1="583.67" y1="96.38" x2="627.48" y2="155.76"/><line class="cls-96" x1="590.4" y1="96.38" x2="635.32" y2="155.76"/><line class="cls-97" x1="597.13" y1="96.38" x2="643.16" y2="155.76"/></g></g><g id="Logo"><g class="cls-98"><g class="cls-99"><g class="cls-99"><g class="cls-100"><g class="cls-101"><path class="cls-102" d="M112.57,83C97.3-1.52,19.8,26.74,19.8,26.74s13.88,79,92.77,56.29"/></g></g><path class="cls-103" d="M182.63,61.95a10.39,10.39,0,1,1-10.39-10.39,10.39,10.39,0,0,1,10.39,10.39"/><path class="cls-103" d="M146,89.09c3.3-15.26,8.5-28.25,9.6-39.56C157,34.24,157,21.75,144.72,21.75c-13.85,0-10.94,17.16-13.27,36.79-1.66,14-8.47,32.75-24.35,42.34a175.7,175.7,0,0,0-32.34,24.85,88,88,0,1,0,124.52,0l0,0a14.55,14.55,0,0,0-20.57,20.57h0a58.92,58.92,0,1,1-83.33,0s13.66-15.43,29.31-23.77c20.56-11,25.87-12.3,52.68-19.28,16.35-4.26,34.52-7.52,33.93-18.59-.67-12.64-14-12.83-30.5-5.77C166.23,85.11,146,89.09,146,89.09"/></g></g></g></g></svg>