<svg id="Layer_1" data-name="Layer 1" xmlns="http://www.w3.org/2000/svg" xmlns:xlink="http://www.w3.org/1999/xlink" viewBox="0 0 500 500"><defs><style>.cls-1{fill:#231f20;filter:url(#luminosity-noclip);}.cls-2{mask:url(#mask);}.cls-3{fill:#39b54a;}.cls-4{fill:#414042;}</style><filter id="luminosity-noclip" x="77.97" y="52.46" width="145.57" height="101.26" filterUnits="userSpaceOnUse" color-interpolation-filters="sRGB"><feFlood flood-color="#fff" result="bg"/><feBlend in="SourceGraphic" in2="bg"/></filter><mask id="mask" x="77.97" y="52.46" width="145.57" height="101.26" maskUnits="userSpaceOnUse"><path class="cls-1" d="M223.54,146.28c-.33-.3-16.8-14.92-39.61-31.34-2.52-5.2-8.12-19.43-5.16-25.73L176.27,88c-3,6.31.77,17.56,3.31,23.81-9.85-6.93-20.69-14-31.84-20.41-1.65-4.62-5.36-16.33-4.64-20.67l-2.71-.45c-.74,4.44,2.09,14,3.76,19.1C130,81.59,115.52,75.07,102.1,71.71l-.67,2.67c12.37,3.09,25.68,8.92,38.77,16-6.69-.2-17.1.62-24.86,6.51L117,99.09c10.34-7.85,26.61-5.83,29-5.48,10.23,5.83,20.22,12.29,29.41,18.68-8.29-1.48-21.49-1.47-31.41,9.77l2.06,1.82c13.51-15.31,33.19-8.08,35.84-7,22.87,16.43,39.44,31.16,39.77,31.46Z"/></mask></defs><title>seedom-o-black</title><g class="cls-2"><path class="cls-3" d="M222.62,147.31C198.82,15.47,78,59.54,78,59.54S99.61,182.79,222.62,147.31Z"/></g><circle class="cls-4" cx="315.67" cy="114.43" r="16.2"/><path class="cls-4" d="M274.68,156.75c5.15-23.79,13.25-44,15-61.68C292,71.22,292,51.76,272.75,51.76c-21.6,0-17.05,26.75-20.69,57.37-2.59,21.79-13.21,51.06-38,66-31.09,18.79-50.43,38.75-50.43,38.75a137.29,137.29,0,1,0,194.15,0l0,0A22.68,22.68,0,0,0,325.71,246h0a91.87,91.87,0,1,1-129.93,0s21.3-24.06,45.7-37.06c32.05-17.08,40.34-19.17,82.14-30.06,25.49-6.64,53.82-11.73,52.9-29-1-19.7-21.77-20-47.56-9C306.28,150.55,274.68,156.75,274.68,156.75Z"/></svg>